<svg width="15" height="15" viewBox="0 0 15 15" fill="none" xmlns="http://www.w3.org/2000/svg">
<path d="M10.1909 7.9798C10.1784 7.97534 10.1655 7.97199 10.1523 7.96978L10.1491 7.96727L10.1191 7.94687C10.0938 7.93162 10.0676 7.91807 10.0406 7.9063C9.96757 7.87505 9.89204 7.84999 9.81482 7.83137C9.26639 7.70673 8.75459 7.45588 8.32011 7.09876C7.34502 6.22877 6.72062 5.03308 6.5639 3.73573C6.53092 3.54903 6.50752 3.36077 6.49381 3.17168L6.48116 3.02874L6.47478 2.95713L6.47156 2.92128L6.47072 2.91235C6.46911 2.88657 6.46466 2.86105 6.45744 2.83625C6.44042 2.77647 6.40586 2.72317 6.35823 2.68324C6.31061 2.6433 6.2521 2.61857 6.19028 2.61222C6.12845 2.60587 6.06614 2.61821 6.01139 2.64764C5.95665 2.67707 5.91199 2.72224 5.88318 2.77731C5.86103 2.82053 5.84818 2.86792 5.84547 2.91641L5.84232 2.94931C5.81262 2.95094 5.81583 2.95103 5.84232 2.94931L5.84203 2.95229L5.8352 3.0241L5.82155 3.16792C5.78767 3.55205 5.72344 3.93289 5.62946 4.30688C5.45474 5.03147 5.14077 5.71515 4.70504 6.31987C4.31826 6.84633 3.80798 7.26962 3.21913 7.55248L2.9211 7.66979C2.77656 7.72129 2.57683 7.76051 2.46895 7.80689L2.09481 7.93832L1.91288 8.00227C1.88212 8.01858 1.89831 8.02711 1.88882 8.03977L1.8687 8.10818L1.859 8.14125C1.85753 8.15489 1.85689 8.16861 1.85709 8.18233C1.85642 8.19094 1.85764 8.1996 1.86066 8.20768L1.89665 8.3289C1.97775 8.39171 2.06291 8.44908 2.15157 8.50065C2.45929 8.53745 2.76127 8.61224 3.05059 8.72331L3.18211 8.77443C3.21885 8.78814 3.25442 8.80482 3.28846 8.8243L3.51393 8.94074C3.86633 9.14842 4.18572 9.4076 4.4615 9.7097C5.10989 10.4707 5.54879 11.3875 5.73492 12.3697C5.79 12.6416 5.83056 12.9161 5.85642 13.1923L5.87705 13.3988L5.87962 13.4245C5.88105 13.4472 5.88467 13.4696 5.89044 13.4915C5.90503 13.5476 5.93685 13.5977 5.98142 13.6347C6.02598 13.6716 6.08104 13.6937 6.13883 13.6977C6.19661 13.7018 6.25419 13.6875 6.30346 13.6571C6.35272 13.6266 6.39117 13.5814 6.41338 13.5279C6.4265 13.4962 6.43424 13.4624 6.43629 13.4281L6.43738 13.4152L6.44611 13.3124L6.48101 12.9041C6.54367 12.3925 6.65959 11.8888 6.82688 11.4013C7.06216 10.6966 7.45434 10.0545 7.97387 9.52348C8.39953 9.09303 8.92258 8.7714 9.49879 8.58578C9.88751 8.4574 10.1135 8.44527 10.1528 8.40413C10.1764 8.38737 10.1325 8.31741 10.1797 8.3183C10.2225 8.30988 10.2602 8.28511 10.285 8.24926C10.3097 8.21341 10.3194 8.16932 10.3122 8.12638C10.3065 8.08722 10.2881 8.051 10.2598 8.02333C10.2402 8.00412 10.2167 7.98928 10.1909 7.9798Z" fill="#B3B3B3"/>
<path d="M13.0777 4.0934C13.0552 4.05352 13.0184 4.0237 12.9747 4.01003C12.9206 3.99795 12.9572 4.00162 12.9438 3.99667L12.9328 3.97944C12.9243 3.9677 12.9146 3.95687 12.9039 3.9471C12.8794 3.92499 12.851 3.90757 12.8202 3.89568C12.728 3.87042 12.6376 3.83894 12.5496 3.80147C12.3346 3.6981 12.1477 3.5444 12.0047 3.35343C11.9575 3.29175 11.9141 3.22723 11.8749 3.16022L11.8144 3.05252L11.7409 2.89373C11.7034 2.79556 11.6726 2.69496 11.6487 2.59264C11.6211 2.47906 11.5882 2.39397 11.5647 2.24949C11.5392 2.11608 11.5135 1.9815 11.4876 1.84574C11.4818 1.80017 11.473 1.80388 11.4651 1.7955L11.4407 1.7741L11.3917 1.73118L11.3442 1.69076L11.3187 1.67951L11.2715 1.65954L11.2497 1.65076L11.2442 1.64873C11.2408 1.64755 11.2236 1.64864 11.2282 1.64898L11.2172 1.65159C11.2107 1.65161 11.1729 1.66323 11.1356 1.67404C11.1018 1.69529 11.0696 1.71902 11.0393 1.74503C11.0197 1.75809 11.002 1.77369 10.9865 1.7914L10.927 1.95687C10.9016 2.26312 10.836 2.56471 10.7321 2.85389C10.6718 2.99127 10.6628 3.00707 10.6357 3.05885L10.5576 3.19203C10.4563 3.35323 10.327 3.495 10.1758 3.61066C10.1592 3.62469 10.1415 3.6373 10.1228 3.64834L10.0389 3.70373C9.92921 3.75539 9.81435 3.79524 9.69624 3.82263C9.6385 3.83734 9.58175 3.85569 9.52633 3.87759L9.37795 3.93542C9.30076 3.97922 9.2444 4.03314 9.25962 4.0564L9.23103 4.13534L9.22775 4.16833C9.22634 4.19289 9.22759 4.21754 9.2315 4.24183L9.25699 4.30937L9.2673 4.33601L9.27326 4.35138L9.31291 4.37627C9.36936 4.41123 9.43628 4.45271 9.5167 4.50258C9.63981 4.52999 9.75932 4.57096 9.90877 4.6127C9.97487 4.6315 10.0371 4.66195 10.0925 4.70262L10.1657 4.74963C10.2794 4.83421 10.3821 4.93254 10.4716 5.04237C10.5231 5.10751 10.5704 5.17592 10.613 5.24719C10.6788 5.35193 10.7331 5.46341 10.775 5.57973C10.9054 5.91109 10.94 6.54877 11.1197 6.61968C11.1305 6.64197 11.1475 6.66069 11.1687 6.67362C11.1899 6.68655 11.2143 6.69316 11.2391 6.69266C11.3071 6.69266 11.4273 6.72566 11.5175 6.29681C11.5975 5.91656 11.6267 5.7151 11.6943 5.49567C11.7425 5.38026 11.7616 5.34744 11.7806 5.30489L11.8489 5.18555C11.9209 5.06575 12.0084 4.95598 12.1092 4.85911C12.3579 4.65608 12.6431 4.50239 12.9495 4.4063C12.9581 4.39205 12.9305 4.3189 12.9703 4.32244C12.9951 4.31884 13.0186 4.30914 13.0388 4.2942C13.0589 4.27926 13.075 4.25955 13.0857 4.23685C13.0963 4.21414 13.1011 4.18915 13.0997 4.16411C13.0984 4.13908 13.0908 4.11478 13.0777 4.0934Z" fill="#B3B3B3"/>
</svg>
